<svg width="497" height="479" viewBox="0 0 497 479" fill="none" xmlns="http://www.w3.org/2000/svg">
<g filter="url(#filter0_d_1_7)">
<path fill-rule="evenodd" clip-rule="evenodd" d="M268.523 22.3799C257.646 24.7108 246.7 29.3452 238.477 35.1026C234.37 37.9777 223.257 47.9114 213.781 57.1762C204.306 66.4421 176.487 93.2992 151.961 116.86C127.436 140.42 103.687 163.54 99.1867 168.238C76.9458 191.454 70.1061 221.554 80.3307 251.219C86.0941 267.938 87.1137 269.127 163.801 348.607C202.87 389.1 237.605 424.268 240.988 426.759C255.492 437.436 271.105 442.424 290.557 442.597C303.698 442.712 311.066 441.111 322.726 435.604C335.311 429.66 337.868 427.473 380.039 386.585C389.545 377.369 409.839 357.78 425.137 343.055C471.79 298.149 481.739 287.778 486.84 278.729C494.287 265.518 496.389 256.952 496.441 239.601C496.476 227.249 496.115 223.613 494.168 216.799C490.933 205.472 483.768 193.173 474.741 183.453C468.57 176.807 409.801 115.724 347.676 51.3834C341.613 45.1021 333.632 37.9757 329.941 35.5454C310.733 22.8937 288.434 18.1143 268.523 22.3799Z" fill="#BADDF1"/>
</g>
<g opacity="0.79" filter="url(#filter2_f_1_7)">
<path fill-rule="evenodd" clip-rule="evenodd" d="M223.276 8.50422C212.543 10.8042 201.742 15.3773 193.628 21.0582C189.576 23.8952 178.61 33.6973 169.26 42.8392C159.91 51.9821 132.46 78.4834 108.26 101.731C84.06 124.979 60.626 147.792 56.185 152.428C34.239 175.336 27.49 205.037 37.579 234.309C43.266 250.806 44.272 251.98 119.943 330.406C158.494 370.362 192.768 405.063 196.106 407.521C210.418 418.057 225.824 422.979 245.018 423.149C257.985 423.263 265.255 421.683 276.76 416.249C289.178 410.384 291.702 408.226 333.313 367.88C342.693 358.786 362.718 339.457 377.813 324.927C423.848 280.617 433.665 270.383 438.698 261.454C446.047 248.418 448.121 239.966 448.172 222.845C448.207 210.657 447.85 207.069 445.929 200.345C442.737 189.168 435.667 177.033 426.76 167.441C420.671 160.884 362.681 100.61 301.38 37.1232C295.397 30.9253 287.522 23.8932 283.88 21.4952C264.926 9.01129 242.923 4.29525 223.276 8.50422ZM174.153 203.345C176.263 197.845 178.455 192.768 179.024 192.064C179.778 191.128 183.083 191.084 191.158 191.064C196.403 191.051 199.518 191.174 201.057 191.261C201.799 191.303 202.435 191.776 202.714 192.464L206.723 202.345C211 212.883 211.203 213.851 211.571 225.392C212.027 239.721 211.803 240.099 203.094 239.647L199.06 239.438C198.037 239.385 197.219 238.568 197.166 237.545L196.759 229.741C196.703 228.678 195.826 227.845 194.762 227.845H186.76C185.655 227.845 184.76 228.741 184.76 229.845V232.645C184.76 235.285 184.22 237.985 183.56 238.645C182.194 240.011 172.944 240.248 170.925 238.968C169.897 238.316 169.674 235.284 169.953 225.734C170.29 214.215 170.585 212.642 174.153 203.345ZM218.971 220.483C218.121 201.379 220.419 194.186 228.093 191.927C229.835 191.414 236.435 191.074 242.76 191.17L252.29 191.315C253.383 191.332 254.26 192.222 254.26 193.315V201.414C254.26 202.491 253.406 203.375 252.33 203.412L245.81 203.639C241.162 203.8 236.775 204.418 236.06 205.011C235.165 205.754 234.76 208.972 234.76 215.345C234.76 221.718 235.165 224.936 236.06 225.679C236.775 226.272 241.162 226.89 245.81 227.051L252.449 227.282C253.477 227.318 254.31 228.127 254.375 229.154L254.568 232.173C255.049 239.707 254.313 240.108 240.805 239.665C222.319 239.059 219.695 236.753 218.971 220.483ZM262.991 216.367C262.842 203.729 262.941 192.816 263.209 192.117C263.533 191.272 265.837 190.845 270.074 190.845C277.269 190.845 277.715 191.163 282.365 199.594C283.957 202.481 285.017 204.844 286.279 204.844C287.541 204.844 288.753 202.2 290.53 198.967C292.307 195.734 294.397 192.561 295.173 191.917C296.022 191.212 299.113 190.865 302.923 191.045L307.355 191.255C308.421 191.306 309.26 192.185 309.26 193.253V237.345C309.26 238.45 308.365 239.345 307.26 239.345L303.358 239.345C293.472 239.345 294.461 240.778 294.743 225.973V215.27C294.743 214.99 294.713 214.646 294.45 214.552C294.102 214.428 293.453 214.8 292.532 217.845C291.097 222.59 288.867 222.919 285.26 222.606C282.94 222.404 281.381 222.119 280.26 218.598C279.139 215.077 277.557 214.846 277.162 214.845C276.766 214.843 277.162 226.445 277.162 229.905C277.162 233.365 277.927 239.296 276.173 239.296C274.42 239.296 272.979 239.345 272.979 239.345L265.237 239.345C264.141 239.345 263.25 238.464 263.237 237.369L262.991 216.367Z" fill="#0092E0"/>
<path d="M187.435 208.511C186.548 211.113 185.823 213.611 185.823 214.063C185.823 214.515 188.046 214.885 190.762 214.885H192.91C194.28 214.885 195.244 213.539 194.804 212.242L193.918 209.635C191.574 202.738 189.523 202.382 187.435 208.511Z" fill="#0092E0"/>
</g>
<path fill-rule="evenodd" clip-rule="evenodd" d="M178.84 192.318C178.048 193.677 176.1 198.394 174.098 203.444C170.45 212.646 170.019 216.374 170.001 225.146C169.626 234.585 169.787 238.077 170.681 238.79C172.93 240.585 182.137 240.05 183.462 238.79C184.271 238.618 184.833 234.908 184.833 232.311V227.851H196.667L197.253 239.35L203.322 239.662C211.938 240.244 212.023 239.27 211.571 225.176C211.206 213.825 211.053 212.884 206.811 202.52L202.267 191.343C202.267 191.343 199.661 190.965 190.942 191.035C182.224 191.104 179.384 191.128 178.84 192.318ZM185.83 214.077C185.83 213.631 186.544 211.093 187.424 208.534C189.745 202.656 191.402 202.805 193.854 209.639C194.651 211.698 195.693 214.875 195.693 214.875H190.692C187.998 214.875 185.83 214.521 185.83 214.077Z" fill="white"/>
<path d="M228.147 191.91C220.411 194.142 218.013 201.337 218.95 220.48C219.674 236.75 222.321 239.091 240.807 239.697C254.315 240.14 255.126 239.726 254.644 232.191L254.337 227.364L245.887 227.042C241.239 226.881 236.852 226.263 236.136 225.67C235.242 224.928 234.836 221.736 234.836 215.363C234.836 208.99 235.242 205.772 236.136 205.03C236.852 204.436 241.239 203.818 245.887 203.658L254.337 203.363C254.277 198.732 254.29 196.074 254.337 191.343L242.836 191.168C236.594 191.053 229.913 191.391 228.147 191.91Z" fill="white"/>
<path d="M263.156 192.08C262.888 192.78 262.789 203.693 262.938 216.331L263.208 239.362L269.664 239.339H272.887C272.887 239.339 274.358 239.363 276.185 239.308C277.938 239.308 277.206 233.343 277.206 229.883C277.206 226.423 276.793 214.875 277.189 214.877C277.585 214.878 279.086 215.041 280.207 218.562C281.328 222.083 282.976 222.515 285.343 222.603C288.95 222.917 291.11 222.57 292.545 217.825C294.044 213.151 294.69 214.809 294.69 214.809V225.937C294.408 240.742 293.426 239.349 303.312 239.349H309.265V191.336L302.869 191.009C299.06 190.829 295.969 191.176 295.12 191.88C294.344 192.525 292.254 195.698 290.477 198.93C288.7 202.164 287.488 204.808 286.226 204.808C284.964 204.808 283.95 202.442 282.358 199.556C277.708 191.124 277.216 190.809 270.021 190.809C265.784 190.809 263.48 191.236 263.156 192.08Z" fill="#FFFEFE"/>
<defs>
<filter id="filter0_d_1_7" x="0.290201" y="0.455408" width="496.153" height="478.547" filterUnits="userSpaceOnUse" color-interpolation-filters="sRGB">
<feFlood flood-opacity="0" result="BackgroundImageFix"/>
<feColorMatrix in="SourceAlpha" type="matrix" values="0 0 0 0 0 0 0 0 0 0 0 0 0 0 0 0 0 0 127 0" result="hardAlpha"/>
<feOffset dx="-47" dy="8"/>
<feGaussianBlur stdDeviation="14.2"/>
<feComposite in2="hardAlpha" operator="out"/>
<feColorMatrix type="matrix" values="0 0 0 0 0.380062 0 0 0 0 0.72767 0 0 0 0 0.975962 0 0 0 0.36 0"/>
<feBlend mode="lighten" in2="BackgroundImageFix" result="effect1_dropShadow_1_7"/>
<feBlend mode="normal" in="SourceGraphic" in2="effect1_dropShadow_1_7" result="shape"/>
</filter>
<filter id="filter2_f_1_7" x="32.7" y="6.7" width="415.774" height="416.755" filterUnits="userSpaceOnUse" color-interpolation-filters="sRGB">
<feFlood flood-opacity="0" result="BackgroundImageFix"/>
<feBlend mode="normal" in="SourceGraphic" in2="BackgroundImageFix" result="shape"/>
<feGaussianBlur stdDeviation="0.15" result="effect1_foregroundBlur_1_7"/>
</filter>
</defs>
</svg>
